<?xml version="1.0" standalone="no"?>
<!DOCTYPE svg PUBLIC "-//W3C//DTD SVG 20010904//EN"
 "http://www.w3.org/TR/2001/REC-SVG-20010904/DTD/svg10.dtd">
<svg version="1.0" xmlns="http://www.w3.org/2000/svg"
 width="256.000000pt" height="256.000000pt" viewBox="0 0 256.000000 256.000000"
 preserveAspectRatio="xMidYMid meet">

<g transform="translate(0.000000,256.000000) scale(0.100000,-0.100000)"
fill="#000000" stroke="none">
<path d="M380 2530 c0 -7 12 -21 26 -33 59 -46 59 -40 62 -659 l3 -568 90 0
89 0 0 155 0 155 73 0 c110 1 268 17 338 35 142 37 263 121 326 226 73 122 84
306 27 429 -55 118 -163 199 -321 242 -70 19 -112 21 -395 26 -245 3 -318 1
-318 -8z m503 -34 c239 -46 370 -209 370 -461 -1 -162 -59 -282 -173 -351 -80
-49 -153 -64 -302 -64 l-128 0 0 438 c0 241 3 442 7 445 11 12 149 7 226 -7z"/>
<path d="M1563 1906 c-4 -5 6 -18 22 -29 54 -40 59 -68 63 -349 l4 -258 88 0
88 0 4 258 c4 280 10 313 63 348 14 9 24 21 23 26 -4 12 -348 16 -355 4z"/>
<path d="M70 1125 c0 -43 4 -75 10 -75 6 0 10 32 10 75 0 43 -4 75 -10 75 -6
0 -10 -32 -10 -75z"/>
<path d="M138 1189 c16 -17 16 -51 0 -68 -11 -10 -10 -11 4 -6 33 13 34 67 0
80 -14 5 -15 4 -4 -6z"/>
<path d="M230 1125 c0 -43 4 -75 10 -75 6 0 10 32 10 75 0 43 -4 75 -10 75 -6
0 -10 -32 -10 -75z"/>
<path d="M315 1190 c3 -5 8 -10 11 -10 2 0 4 5 4 10 0 6 -5 10 -11 10 -5 0 -7
-4 -4 -10z"/>
<path d="M435 1125 c0 -43 4 -75 10 -75 6 0 9 29 7 75 -2 41 -7 75 -10 75 -4
0 -7 -34 -7 -75z"/>
<path d="M603 1188 c29 -74 61 -138 68 -138 8 0 -11 56 -42 123 -12 26 -36 40
-26 15z"/>
<path d="M740 1125 c0 -43 4 -75 10 -75 6 0 10 32 10 75 0 43 -4 75 -10 75 -6
0 -10 -32 -10 -75z"/>
<path d="M808 1187 c14 -16 8 -57 -8 -57 -5 0 3 -20 17 -46 31 -55 43 -51 16
5 -18 36 -18 41 -4 56 17 17 7 45 -20 54 -12 4 -12 2 -1 -12z"/>
<path d="M1000 1118 c0 -101 17 -94 22 10 2 53 0 72 -9 72 -9 0 -13 -23 -13
-82z"/>
<path d="M1205 1175 c19 -18 25 -35 25 -67 0 -31 3 -39 10 -28 18 27 11 75
-13 98 -32 30 -52 28 -22 -3z"/>
<path d="M1320 1163 c9 -21 23 -55 31 -75 7 -21 17 -38 22 -38 5 0 7 4 5 8 -1
4 -14 38 -27 75 -14 37 -30 67 -37 67 -9 0 -7 -11 6 -37z"/>
<path d="M1540 1193 c0 -21 57 -143 67 -143 7 0 -1 30 -20 75 -28 64 -47 93
-47 68z"/>
<path d="M1680 1194 c0 -14 105 -144 108 -134 2 6 -18 39 -45 75 -43 58 -63
76 -63 59z"/>
<path d="M1975 1175 c18 -17 25 -35 25 -62 0 -28 3 -34 10 -23 5 8 10 25 10
36 0 26 -36 74 -55 74 -9 0 -5 -9 10 -25z"/>
<path d="M2103 1125 c17 -41 35 -75 40 -75 5 0 7 3 5 8 -1 4 -14 38 -28 75
-14 37 -30 67 -36 67 -7 0 1 -30 19 -75z"/>
<path d="M2265 1125 c0 -43 4 -75 10 -75 6 0 10 32 10 75 0 43 -4 75 -10 75
-6 0 -10 -32 -10 -75z"/>
<path d="M2460 1196 c0 -2 7 -6 15 -10 8 -3 15 -1 15 4 0 6 -7 10 -15 10 -8 0
-15 -2 -15 -4z"/>
<path d="M1100 1161 c-17 -33 -11 -61 19 -92 16 -16 34 -29 39 -29 6 0 -3 14
-20 30 -25 26 -29 37 -26 70 4 45 3 48 -12 21z"/>
<path d="M2361 1150 c-11 -33 -7 -55 17 -82 25 -30 34 -20 11 11 -17 23 -20
38 -16 65 7 44 2 46 -12 6z"/>
<path d="M1866 1148 c-12 -43 1 -76 37 -94 l32 -17 -24 27 c-14 15 -28 45 -31
69 -6 40 -7 41 -14 15z"/>
<path d="M305 1130 c-3 -5 -1 -10 4 -10 6 0 11 5 11 10 0 6 -2 10 -4 10 -3 0
-8 -4 -11 -10z"/>
<path d="M968 1023 c7 -3 16 -2 19 1 4 3 -2 6 -13 5 -11 0 -14 -3 -6 -6z"/>
<path d="M1650 687 c0 -147 -5 -290 -11 -323 -12 -69 -49 -141 -85 -167 -24
-18 -29 -18 -120 -2 -129 24 -189 17 -226 -24 -34 -37 -38 -85 -9 -101 30 -16
120 -12 193 9 146 40 274 154 354 315 61 123 84 238 84 419 l0 137 -90 0 -90
0 0 -263z"/>
</g>
</svg>
